<svg xmlns="http://www.w3.org/2000/svg" viewBox="0 0 900 600">
  <rect width="900" height="600" fill="#0d1117"/>
  
  <text x="450" y="35" fill="#58a6ff" font-size="22" text-anchor="middle" font-weight="bold">AI/ML Subsystem Architecture</text>
  
  <!-- DATA INPUT LAYER -->
  <rect x="30" y="60" width="200" height="50" rx="8" fill="#238636"/>
  <text x="130" y="90" fill="#fff" font-size="14" text-anchor="middle">DATA INPUT LAYER</text>
  
  <rect x="30" y="125" width="90" height="45" rx="5" fill="#1f6feb"/>
  <text x="75" y="150" fill="#fff" font-size="10" text-anchor="middle">Genomics</text>
  
  <rect x="130" y="125" width="90" height="45" rx="5" fill="#1f6feb"/>
  <text x="175" y="150" fill="#fff" font-size="10" text-anchor="middle">Transcriptomics</text>
  
  <rect x="30" y="180" width="90" height="45" rx="5" fill="#1f6feb"/>
  <text x="75" y="205" fill="#fff" font-size="10" text-anchor="middle">Epigenomics</text>
  
  <rect x="130" y="180" width="90" height="45" rx="5" fill="#1f6feb"/>
  <text x="175" y="205" fill="#fff" font-size="10" text-anchor="middle">Proteomics</text>
  
  <rect x="80" y="235" width="90" height="45" rx="5" fill="#1f6feb"/>
  <text x="125" y="260" fill="#fff" font-size="10" text-anchor="middle">Wearable Data</text>
  
  <line x1="130" y1="110" x2="130" y2="125" stroke="#8b949e" stroke-width="2"/>
  <line x1="130" y1="170" x2="130" y2="180" stroke="#8b949e" stroke-width="2"/>
  <line x1="130" y1="225" x2="130" y2="235" stroke="#8b949e" stroke-width="2"/>
  
  <!-- PROCESSING LAYER -->
  <rect x="280" y="60" width="280" height="50" rx="8" fill="#8957e5"/>
  <text x="420" y="90" fill="#fff" font-size="14" text-anchor="middle">ML PROCESSING ENGINE</text>
  
  <rect x="280" y="125" width="130" height="45" rx="5" fill="#a371f7"/>
  <text x="345" y="150" fill="#fff" font-size="10" text-anchor="middle">Data Validator</text>
  <text x="345" y="162" fill="#8b949e" font-size="8" text-anchor="middle">QC + Normalization</text>
  
  <rect x="420" y="125" width="130" height="45" rx="5" fill="#a371f7"/>
  <text x="485" y="150" fill="#fff" font-size="10" text-anchor="middle">Feature Engine</text>
  <text x="485" y="162" fill="#8b949e" font-size="8" text-anchor="middle">Embedding + PCA</text>
  
  <rect x="280" y="185" width="130" height="45" rx="5" fill="#a371f7"/>
  <text x="345" y="210" fill="#fff" font-size="10" text-anchor="middle">TF Network</text>
  <text x="345" y="222" fill="#8b949e" font-size="8" text-anchor="middle">2M interactions</text>
  
  <rect x="420" y="185" width="130" height="45" rx="5" fill="#a371f7"/>
  <text x="485" y="210" fill="#fff" font-size="10" text-anchor="middle">HDWGCNA</text>
  <text x="485" y="222" fill="#8b949e" font-size="8" text-anchor="middle">Module Detection</text>
  
  <rect x="280" y="245" width="130" height="45" rx="5" fill="#a371f7"/>
  <text x="345" y="270" fill="#fff" font-size="10" text-anchor="middle">Classifier</text>
  <text x="345" y="282" fill="#8b949e" font-size="8" text-anchor="middle">GPNMB+ Detection</text>
  
  <rect x="420" y="245" width="130" height="45" rx="5" fill="#a371f7"/>
  <text x="485" y="270" fill="#fff" font-size="10" text-anchor="middle">Trajectory Model</text>
  <text x="485" y="282" fill="#8b949e" font-size="8" text-anchor="middle">DAM Transition</text>
  
  <line x1="75" y1="170" x2="280" y2="170" stroke="#8b949e" stroke-width="2"/>
  <line x1="175" y1="170" x2="280" y2="170" stroke="#8b949e" stroke-width="2"/>
  <line x1="75" y1="225" x2="280" y2="225" stroke="#8b949e" stroke-width="2"/>
  <line x1="175" y1="225" x2="420" y2="225" stroke="#8b949e" stroke-width="2"/>
  <line x1="125" y1="280" x2="280" y2="280" stroke="#8b949e" stroke-width="2"/>
  
  <line x1="345" y1="170" x2="345" y2="185" stroke="#8b949e" stroke-width="2"/>
  <line x1="485" y1="170" x2="485" y2="185" stroke="#8b949e" stroke-width="2"/>
  <line x1="345" y1="230" x2="345" y2="245" stroke="#8b949e" stroke-width="2"/>
  <line x1="485" y1="230" x2="485" y2="245" stroke="#8b949e" stroke-width="2"/>
  
  <!-- DEEP LEARNING LAYER -->
  <rect x="600" y="60" width="270" height="50" rx="8" fill="#f78166"/>
  <text x="735" y="90" fill="#fff" font-size="14" text-anchor="middle">DEEP LEARNING MODELS</text>
  
  <rect x="600" y="125" width="125" height="45" rx="5" fill="#ffa657"/>
  <text x="662" y="150" fill="#fff" font-size="10" text-anchor="middle">Graph Neural Net</text>
  <text x="662" y="162" fill="#8b949e" font-size="8" text-anchor="middle">TF-Gene Relations</text>
  
  <rect x="735" y="125" width="125" height="45" rx="5" fill="#ffa657"/>
  <text x="797" y="150" fill="#fff" font-size="10" text-anchor="middle">Transformer</text>
  <text x="797" y="162" fill="#8b949e" font-size="8" text-anchor="middle">Sequence Analysis</text>
  
  <rect x="600" y="185" width="125" height="45" rx="5" fill="#ffa657"/>
  <text x="662" y="210" fill="#fff" font-size="10" text-anchor="middle">Neural ODE</text>
  <text x="662" y="222" fill="#8b949e" font-size="8" text-anchor="middle">Dynamic Modeling</text>
  
  <rect x="735" y="185" width="125" height="45" rx="5" fill="#ffa657"/>
  <text x="797" y="210" fill="#fff" font-size="10" text-anchor="middle">VAE</text>
  <text x="797" y="222" fill="#8b949e" font-size="8" text-anchor="middle">Latent Space</text>
  
  <rect x="600" y="245" width="125" height="45" rx="5" fill="#ffa657"/>
  <text x="662" y="270" fill="#fff" font-size="10" text-anchor="middle">RL Agent</text>
  <text x="662" y="282" fill="#8b949e" font-size="8" text-anchor="middle">Intervention Opt</text>
  
  <rect x="735" y="245" width="125" height="45" rx="5" fill="#ffa657"/>
  <text x="797" y="270" fill="#fff" font-size="10" text-anchor="middle">Bayesian Net</text>
  <text x="797" y="282" fill="#8b949e" font-size="8" text-anchor="middle">Uncertainty</text>
  
  <line x1="345" y1="290" x2="345" y2="380" stroke="#8b949e" stroke-width="2" stroke-dasharray="5,5"/>
  <line x1="485" y1="290" x2="485" y2="380" stroke="#8b949e" stroke-width="2" stroke-dasharray="5,5"/>
  <line x1="662" y1="170" x2="662" y2="185" stroke="#8b949e" stroke-width="2"/>
  <line x1="797" y1="170" x2="797" y2="185" stroke="#8b949e" stroke-width="2"/>
  <line x1="662" y1="230" x2="662" y2="245" stroke="#8b949e" stroke-width="2"/>
  <line x1="797" y1="230" x2="797" y2="245" stroke="#8b949e" stroke-width="2"/>
  
  <!-- OUTPUT LAYER -->
  <rect x="280" y="400" width="590" height="50" rx="8" fill="#3fb950"/>
  <text x="575" y="430" fill="#fff" font-size="14" text-anchor="middle">OUTPUT & INSIGHTS</text>
  
  <rect x="280" y="465" width="130" height="40" rx="5" fill="#56d364"/>
  <text x="345" y="490" fill="#fff" font-size="10" text-anchor="middle">Homeostatic Index</text>
  
  <rect x="420" y="465" width="130" height="40" rx="5" fill="#56d364"/>
  <text x="485" y="490" fill="#fff" font-size="10" text-anchor="middle">DAM Risk Score</text>
  
  <rect x="560" y="465" width="130" height="40" rx="5" fill="#56d364"/>
  <text x="625" y="490" fill="#fff" font-size="10" text-anchor="middle">Brain Age</text>
  
  <rect x="700" y="465" width="160" height="40" rx="5" fill="#56d364"/>
  <text x="780" y="490" fill="#fff" font-size="10" text-anchor="middle">Intervention Plan</text>
  
  <line x1="345" y1="350" x2="345" y2="400" stroke="#8b949e" stroke-width="2"/>
  <line x1="485" y1="350" x2="485" y2="400" stroke="#8b949e" stroke-width="2"/>
  <line x1="662" y1="350" x2="662" y2="400" stroke="#8b949e" stroke-width="2"/>
  <line x1="797" y1="350" x2="797" y2="400" stroke="#8b949e" stroke-width="2"/>
  
  <line x1="345" y1="450" x2="345" y2="465" stroke="#8b949e" stroke-width="2"/>
  <line x1="485" y1="450" x2="485" y2="465" stroke="#8b949e" stroke-width="2"/>
  <line x1="625" y1="450" x2="625" y2="465" stroke="#8b949e" stroke-width="2"/>
  <line x1="780" y1="450" x2="780" y2="465" stroke="#8b949e" stroke-width="2"/>
  
  <line x1="560" y1="155" x2="600" y2="155" stroke="#ffa657" stroke-width="2"/>
  <line x1="560" y1="215" x2="600" y2="215" stroke="#ffa657" stroke-width="2"/>
  <line x1="560" y1="275" x2="600" y2="275" stroke="#ffa657" stroke-width="2"/>
</svg>